<svg xmlns="http://www.w3.org/2000/svg" xmlns:xlink="http://www.w3.org/1999/xlink" width="500" zoomAndPan="magnify" viewBox="0 0 375 374.999991" height="500" preserveAspectRatio="xMidYMid meet" version="1.0"><defs><clipPath id="9b05cf03a8"><path d="M 88.820312 14.101562 L 286.070312 14.101562 L 286.070312 360.601562 L 88.820312 360.601562 Z M 88.820312 14.101562 " clip-rule="nonzero"/></clipPath><clipPath id="7fb201e42a"><path d="M 0.925781 0.398438 L 198.070312 0.398438 L 198.070312 346.601562 L 0.925781 346.601562 Z M 0.925781 0.398438 " clip-rule="nonzero"/></clipPath><clipPath id="b528c0d730"><rect x="0" width="199" y="0" height="347"/></clipPath></defs><g clip-path="url(#9b05cf03a8)"><g transform="matrix(1, 0, 0, 1, 88, 14)"><g clip-path="url(#b528c0d730)"><g clip-path="url(#7fb201e42a)"><path fill="#4b2176" d="M 0.859375 282.257812 L 0.859375 24.652344 C 0.859375 20.160156 1.035156 15.878906 3.175781 11.710938 C 7.335938 3.605469 15.464844 0.539062 24.046875 0.539062 L 175.226562 0.539062 C 184.707031 0.539062 193.34375 4.796875 196.824219 14.164062 C 198.152344 17.742188 198.078125 21.359375 198.078125 25.074219 L 198.078125 282.898438 C 198.078125 285.625 198.144531 288.363281 198.078125 291.09375 C 197.828125 301.710938 190.722656 310.121094 180.597656 311.894531 L 180.597656 322.316406 C 180.597656 325.160156 180.714844 328.03125 180.597656 330.871094 C 180.269531 338.832031 174.449219 345.632812 166.484375 346.386719 C 166.027344 346.464844 165.535156 346.496094 165.003906 346.464844 C 164.507812 346.464844 164.039062 346.414062 163.605469 346.324219 C 155.582031 345.261719 149.78125 339.203125 149.414062 330.859375 C 149.28125 327.902344 149.414062 324.914062 149.414062 321.957031 L 149.414062 312.238281 C 148.09375 312.230469 146.773438 312.222656 145.453125 312.222656 L 45.734375 312.222656 L 45.734375 322.316406 C 45.734375 325.160156 45.851562 328.03125 45.734375 330.871094 C 45.40625 338.832031 39.589844 345.632812 31.621094 346.386719 C 31.164062 346.464844 30.671875 346.496094 30.144531 346.464844 C 29.644531 346.464844 29.179688 346.414062 28.742188 346.324219 C 20.722656 345.261719 14.921875 339.203125 14.550781 330.859375 C 14.421875 327.902344 14.550781 324.914062 14.550781 321.957031 L 14.550781 310.855469 C 6.429688 307.851562 0.972656 300.25 0.859375 290.925781 C 0.828125 288.039062 0.859375 285.144531 0.859375 282.257812 Z M 13.175781 209.273438 L 13.175781 289.789062 C 13.175781 292.097656 13.660156 294.304688 14.714844 296.070312 C 15.917969 298.085938 17.871094 299.511719 20.707031 299.835938 C 20.972656 299.867188 21.238281 299.898438 21.519531 299.90625 L 165.644531 299.90625 C 166.476562 299.90625 167.363281 299.933594 168.28125 299.960938 C 169.132812 299.988281 170.007812 300.019531 170.898438 300.039062 C 172.074219 300.0625 173.265625 300.070312 174.441406 300.019531 C 176.648438 299.929688 178.785156 299.640625 180.597656 298.921875 C 183.605469 297.734375 185.71875 295.363281 185.765625 290.734375 C 186.011719 265.347656 185.765625 239.949219 185.765625 214.566406 L 185.765625 135.464844 L 13.175781 135.464844 Z M 26.867188 317.367188 L 26.867188 328.542969 C 26.867188 331.027344 26.800781 333.957031 30.144531 334.148438 C 33.140625 334.148438 33.421875 331.414062 33.421875 329.152344 L 33.421875 312.222656 L 26.867188 312.222656 Z M 161.726562 317.367188 L 161.726562 328.542969 C 161.726562 331.027344 161.660156 333.957031 165.003906 334.148438 C 168 334.148438 168.28125 331.414062 168.28125 329.152344 L 168.28125 312.378906 C 166.097656 312.386719 163.914062 312.378906 161.726562 312.363281 Z M 185.765625 21.25 C 185.476562 14.957031 180.519531 12.851562 175.117188 12.851562 L 25.738281 12.851562 C 20.859375 12.851562 15.65625 12.800781 13.628906 18.457031 C 12.890625 20.515625 13.175781 23.128906 13.175781 25.292969 L 13.175781 123.148438 L 185.765625 123.148438 L 185.765625 41.527344 C 185.765625 34.792969 186.070312 27.976562 185.765625 21.25 Z M 185.765625 21.25 " fill-opacity="1" fill-rule="nonzero"/></g><path fill="#4b2176" d="M 169.621094 107.167969 L 141.515625 107.167969 C 133.589844 107.167969 133.578125 94.851562 141.515625 94.851562 L 169.621094 94.851562 C 177.542969 94.851562 177.558594 107.167969 169.621094 107.167969 Z M 169.621094 107.167969 " fill-opacity="1" fill-rule="nonzero"/><path fill="#4b2176" d="M 141.515625 151.597656 L 169.621094 151.597656 C 177.542969 151.597656 177.558594 163.914062 169.621094 163.914062 L 141.515625 163.914062 C 133.589844 163.914062 133.578125 151.597656 141.515625 151.597656 Z M 141.515625 151.597656 " fill-opacity="1" fill-rule="nonzero"/></g></g></g></svg>