<svg xmlns="http://www.w3.org/2000/svg" xmlns:xlink="http://www.w3.org/1999/xlink" width="500" zoomAndPan="magnify" viewBox="0 0 375 374.999991" height="500" preserveAspectRatio="xMidYMid meet" version="1.0"><defs><clipPath id="fc0b8caa1c"><path d="M 33.800781 15.53125 L 341.300781 15.53125 L 341.300781 359.78125 L 33.800781 359.78125 Z M 33.800781 15.53125 " clip-rule="nonzero"/></clipPath></defs><g clip-path="url(#fc0b8caa1c)"><path fill="#4b2176" d="M 336.921875 313.007812 L 276.214844 313.007812 L 276.214844 48.40625 C 276.214844 30.273438 261.464844 15.53125 243.339844 15.53125 L 66.667969 15.53125 C 48.535156 15.53125 33.792969 30.28125 33.792969 48.40625 L 33.792969 317.289062 C 33.792969 340.542969 52.710938 359.460938 75.964844 359.460938 C 76.898438 359.460938 77.828125 359.433594 78.746094 359.367188 C 79.03125 359.425781 79.324219 359.460938 79.632812 359.460938 L 299.039062 359.460938 C 310.308594 359.460938 320.894531 355.074219 328.859375 347.109375 C 336.820312 339.144531 341.210938 328.558594 341.210938 317.289062 C 341.210938 314.929688 339.292969 313.007812 336.929688 313.007812 Z M 75.964844 350.898438 C 57.433594 350.898438 42.355469 335.820312 42.355469 317.289062 L 42.355469 48.40625 C 42.355469 35 53.265625 24.09375 66.667969 24.09375 L 243.339844 24.09375 C 256.75 24.09375 267.652344 35.003906 267.652344 48.40625 L 267.652344 313.007812 L 113.847656 313.007812 C 111.484375 313.007812 109.566406 314.929688 109.566406 317.289062 C 109.566406 335.820312 94.488281 350.898438 75.957031 350.898438 Z M 322.800781 341.058594 C 316.449219 347.410156 308.015625 350.898438 299.039062 350.898438 L 101.410156 350.898438 C 110.492188 344.003906 116.707031 333.515625 117.921875 321.570312 L 332.375 321.570312 C 331.449219 328.929688 328.132812 335.726562 322.800781 341.050781 Z M 100.980469 40.121094 L 113.082031 40.121094 C 115.222656 40.121094 116.972656 41.519531 117.441406 43.609375 L 130.238281 100.367188 C 126.390625 102.257812 123.730469 106.203125 123.730469 110.769531 C 123.730469 116.535156 127.96875 121.324219 133.492188 122.207031 C 132.984375 123.484375 132.699219 124.875 132.699219 126.339844 C 132.699219 132.5625 137.757812 137.621094 143.980469 137.621094 C 150.203125 137.621094 155.261719 132.5625 155.261719 126.339844 C 155.261719 124.941406 154.988281 123.605469 154.527344 122.371094 L 179.570312 122.371094 C 179.109375 123.605469 178.835938 124.941406 178.835938 126.339844 C 178.835938 132.5625 183.894531 137.621094 190.117188 137.621094 C 196.339844 137.621094 201.398438 132.5625 201.398438 126.339844 C 201.398438 124.941406 201.128906 123.605469 200.664062 122.371094 L 200.855469 122.371094 C 203.21875 122.371094 205.136719 120.453125 205.136719 118.089844 C 205.136719 115.726562 203.21875 113.808594 200.855469 113.808594 L 135.324219 113.808594 C 133.65625 113.808594 132.292969 112.445312 132.292969 110.777344 C 132.292969 109.105469 133.65625 107.742188 135.324219 107.742188 L 193.320312 107.742188 C 199.773438 107.742188 205.273438 103.347656 206.691406 97.046875 L 212.964844 69.210938 C 213.886719 65.109375 212.921875 60.886719 210.3125 57.625 C 207.699219 54.363281 203.796875 52.488281 199.59375 52.488281 L 128.226562 52.488281 L 125.796875 41.726562 C 124.449219 35.738281 119.21875 31.558594 113.082031 31.558594 L 100.980469 31.558594 C 98.621094 31.558594 96.699219 33.476562 96.699219 35.839844 C 96.699219 38.203125 98.621094 40.121094 100.980469 40.121094 Z M 190.117188 129.050781 C 188.621094 129.050781 187.398438 127.832031 187.398438 126.332031 C 187.398438 124.832031 188.621094 123.613281 190.117188 123.613281 C 191.617188 123.613281 192.835938 124.832031 192.835938 126.332031 C 192.835938 127.832031 191.617188 129.050781 190.117188 129.050781 Z M 143.980469 129.050781 C 142.480469 129.050781 141.261719 127.832031 141.261719 126.332031 C 141.261719 124.832031 142.480469 123.613281 143.980469 123.613281 C 145.476562 123.613281 146.699219 124.832031 146.699219 126.332031 C 146.699219 127.832031 145.476562 129.050781 143.980469 129.050781 Z M 199.59375 61.050781 C 201.175781 61.050781 202.65625 61.75 203.625 62.96875 C 204.601562 64.1875 204.960938 65.773438 204.609375 67.320312 L 198.335938 95.15625 C 197.796875 97.554688 195.78125 99.167969 193.320312 99.167969 L 138.75 99.167969 L 130.160156 61.050781 L 199.601562 61.050781 Z M 160.042969 89.121094 L 160.042969 71.101562 C 160.042969 68.742188 161.960938 66.820312 164.324219 66.820312 C 166.683594 66.820312 168.605469 68.742188 168.605469 71.101562 L 168.605469 89.121094 C 168.605469 91.480469 166.683594 93.402344 164.324219 93.402344 C 161.960938 93.402344 160.042969 91.480469 160.042969 89.121094 Z M 142.460938 89.121094 L 142.460938 71.101562 C 142.460938 68.742188 144.378906 66.820312 146.742188 66.820312 C 149.101562 66.820312 151.023438 68.742188 151.023438 71.101562 L 151.023438 89.121094 C 151.023438 91.480469 149.101562 93.402344 146.742188 93.402344 C 144.378906 93.402344 142.460938 91.480469 142.460938 89.121094 Z M 177.625 89.121094 L 177.625 71.101562 C 177.625 68.742188 179.542969 66.820312 181.90625 66.820312 C 184.265625 66.820312 186.1875 68.742188 186.1875 71.101562 L 186.1875 89.121094 C 186.1875 91.480469 184.265625 93.402344 181.90625 93.402344 C 179.542969 93.402344 177.625 91.480469 177.625 89.121094 Z M 103.515625 140.859375 L 64.210938 140.859375 C 61.851562 140.859375 59.929688 142.777344 59.929688 145.140625 L 59.929688 184.441406 C 59.929688 186.804688 61.851562 188.722656 64.210938 188.722656 L 103.515625 188.722656 C 105.875 188.722656 107.796875 186.804688 107.796875 184.441406 L 107.796875 145.140625 C 107.796875 142.777344 105.875 140.859375 103.515625 140.859375 Z M 99.234375 180.160156 L 68.496094 180.160156 L 68.496094 149.421875 L 99.234375 149.421875 Z M 71.941406 167.78125 C 70.269531 166.113281 70.269531 163.398438 71.941406 161.730469 C 73.609375 160.0625 76.320312 160.0625 77.992188 161.730469 L 80.925781 164.664062 L 89.730469 155.859375 C 91.398438 154.1875 94.109375 154.1875 95.789062 155.859375 C 97.464844 157.527344 97.457031 160.238281 95.789062 161.917969 L 83.957031 173.746094 C 83.148438 174.554688 82.066406 175.003906 80.929688 175.003906 C 79.796875 175.003906 78.703125 174.554688 77.90625 173.746094 Z M 126.070312 158.976562 L 245.796875 158.976562 C 248.15625 158.976562 250.078125 160.894531 250.078125 163.257812 C 250.078125 165.621094 248.15625 167.539062 245.796875 167.539062 L 126.070312 167.539062 C 123.707031 167.539062 121.789062 165.621094 121.789062 163.257812 C 121.789062 160.894531 123.707031 158.976562 126.070312 158.976562 Z M 103.515625 195.824219 L 64.210938 195.824219 C 61.851562 195.824219 59.929688 197.742188 59.929688 200.105469 L 59.929688 239.40625 C 59.929688 241.769531 61.851562 243.6875 64.210938 243.6875 L 103.515625 243.6875 C 105.875 243.6875 107.796875 241.769531 107.796875 239.40625 L 107.796875 200.105469 C 107.796875 197.742188 105.875 195.824219 103.515625 195.824219 Z M 99.234375 235.125 L 68.496094 235.125 L 68.496094 204.386719 L 99.234375 204.386719 Z M 71.941406 222.746094 C 70.269531 221.074219 70.269531 218.363281 71.941406 216.695312 C 73.609375 215.023438 76.320312 215.023438 77.992188 216.695312 L 80.925781 219.628906 L 89.730469 210.824219 C 91.398438 209.152344 94.109375 209.152344 95.789062 210.824219 C 97.464844 212.492188 97.457031 215.203125 95.789062 216.878906 L 83.957031 228.710938 C 83.148438 229.515625 82.066406 229.964844 80.929688 229.964844 C 79.796875 229.964844 78.703125 229.515625 77.90625 228.710938 Z M 250.078125 218.222656 C 250.078125 220.582031 248.15625 222.503906 245.796875 222.503906 L 126.070312 222.503906 C 123.707031 222.503906 121.789062 220.582031 121.789062 218.222656 C 121.789062 215.859375 123.707031 213.941406 126.070312 213.941406 L 245.796875 213.941406 C 248.15625 213.941406 250.078125 215.859375 250.078125 218.222656 Z M 103.515625 250.789062 L 64.210938 250.789062 C 61.851562 250.789062 59.929688 252.707031 59.929688 255.070312 L 59.929688 294.371094 C 59.929688 296.734375 61.851562 298.652344 64.210938 298.652344 L 103.515625 298.652344 C 105.875 298.652344 107.796875 296.734375 107.796875 294.371094 L 107.796875 255.070312 C 107.796875 252.707031 105.875 250.789062 103.515625 250.789062 Z M 99.234375 290.089844 L 68.496094 290.089844 L 68.496094 259.351562 L 99.234375 259.351562 Z M 71.941406 277.710938 C 70.269531 276.039062 70.269531 273.328125 71.941406 271.660156 C 73.609375 269.988281 76.320312 269.988281 77.992188 271.660156 L 80.925781 274.589844 L 89.730469 265.785156 C 91.398438 264.117188 94.109375 264.117188 95.789062 265.785156 C 97.464844 267.457031 97.457031 270.167969 95.789062 271.84375 L 83.957031 283.675781 C 83.148438 284.480469 82.066406 284.929688 80.929688 284.929688 C 79.796875 284.929688 78.703125 284.480469 77.90625 283.675781 Z M 250.078125 273.1875 C 250.078125 275.546875 248.15625 277.46875 245.796875 277.46875 L 126.070312 277.46875 C 123.707031 277.46875 121.789062 275.546875 121.789062 273.1875 C 121.789062 270.824219 123.707031 268.90625 126.070312 268.90625 L 245.796875 268.90625 C 248.15625 268.90625 250.078125 270.824219 250.078125 273.1875 Z M 250.078125 273.1875 " fill-opacity="1" fill-rule="nonzero"/></g></svg>