<svg width="375" height="265" viewBox="0 0 375 265" fill="none" xmlns="http://www.w3.org/2000/svg">
<path d="M59.9062 157.573C61.5758 153.907 62.1834 149.919 63.3721 146.106C63.4007 145.279 62.8573 144.36 63.7601 143.672C63.7483 143.514 63.7798 143.364 63.8547 143.224C63.84 142.431 63.8253 141.637 63.8106 140.844C63.8245 139.906 63.8384 138.967 63.8522 138.029C63.7267 137.159 63.5702 136.285 64.2016 135.52L64.3011 135.572C64.0974 131.721 64.1169 131.701 67.1584 132.649C67.6204 132.677 68.0823 132.705 68.5443 132.734C69.5522 132.662 70.5775 132.458 71.4901 133.117C72.2706 133.145 73.0511 133.172 73.8315 133.199C77.3768 133.203 80.9221 133.207 84.4674 133.211L84.4146 133.112C85.1514 132.423 86.0371 132.665 86.8922 132.715C87.6821 132.714 88.472 132.712 89.2619 132.71C90.0509 132.614 90.8406 132.463 91.6244 132.743C91.7659 132.668 91.9164 132.637 92.0759 132.649C92.7635 131.758 93.6802 132.289 94.5063 132.258C99.3821 131.226 104.148 129.88 108.513 127.379C109.115 126.634 109.868 126.28 110.837 126.484C116.731 123.646 122.161 120.097 127.121 115.829C127.646 114.821 128.454 114.165 129.554 113.872C130.066 113.41 130.578 112.949 131.09 112.488C131.57 111.491 132.353 110.846 133.392 110.498C134.66 109.232 135.927 107.966 137.194 106.7C138.107 104.912 139.466 103.531 141.1 102.398C141.399 102.071 141.699 101.743 141.998 101.416C142.248 100.595 142.617 99.8701 143.502 99.5661C143.799 99.2211 144.096 98.8761 144.393 98.5311C144.589 97.6562 145.033 96.9713 145.877 96.593L145.859 96.6127C145.989 95.6926 146.507 95.063 147.322 94.6563C152.426 87.6799 156.97 80.3612 160.812 72.6126C160.8 71.8377 161.078 71.2131 161.754 70.7951C163.367 67.7175 164.981 64.64 166.594 61.5625C166.736 60.5621 167.096 59.6828 167.966 59.0855C173.219 49.448 177.788 39.4197 184.266 30.481C185.362 28.9689 186.502 27.489 187.622 25.9943C188.005 24.6625 188.9 23.7734 190.089 23.1376C190.735 22.4963 191.382 21.8549 192.029 21.2136C192.646 20.0119 193.596 19.1949 194.872 18.7548C195.022 18.6071 195.172 18.4594 195.321 18.3117C195.744 17.5208 196.297 16.9174 197.289 16.9482C204.625 11.5836 212.868 8.40356 221.761 6.79208C222.404 5.88724 223.371 6.52811 224.154 6.29209C224.882 5.57081 225.767 5.86545 226.613 5.91498C226.767 5.87807 226.918 5.83342 227.067 5.78103C229.63 5.09438 232.194 5.10859 234.758 5.77086C235.068 5.81719 235.378 5.86351 235.688 5.90984C236.694 5.84708 237.731 5.55145 238.637 6.282C239.574 6.54151 240.663 5.94659 241.495 6.79221L241.485 6.78552C242.281 6.81648 243.077 6.84743 243.873 6.87839C244.195 6.87961 244.517 6.88083 244.84 6.88205C246.808 7.23958 248.799 7.49561 250.685 8.21249C252.746 8.68397 254.806 9.15546 256.867 9.62695C258.023 9.60762 259.121 9.88562 260.2 10.267C264.472 11.6738 268.753 13.0528 273.012 14.4973C275.856 15.462 278.67 16.5152 281.346 17.9003C282.259 17.927 283.043 18.3045 283.786 18.7959L285.669 19.8306C286.456 19.823 287.089 20.1707 287.648 20.6888C287.648 20.6888 287.615 20.669 287.615 20.669C288.394 20.7776 289.071 21.0995 289.641 21.6436C294.877 23.8794 299.613 26.9881 304.458 29.936C310.341 33.5157 315.75 37.7183 321.204 41.8731C322.547 42.8962 324.103 43.6987 325.068 45.175C325.958 45.3548 326.567 45.9213 327.066 46.636C327.755 46.882 328.056 47.5025 328.432 48.0505C329.322 48.2342 329.898 48.8459 330.428 49.519C331.271 49.9271 331.721 50.7196 332.276 51.4098C333.617 51.7893 334.372 52.8862 335.247 53.8358C338.59 57.1658 341.932 60.4959 345.275 63.826C346.995 65.3196 348.558 66.962 349.942 68.7727C350.463 69.3775 350.984 69.9824 351.504 70.5872C352.264 71.4235 353.024 72.2598 353.785 73.0961C354.842 74.2881 356.081 75.3311 356.801 76.7983C357.401 77.4857 358.002 78.1731 358.602 78.8605C362.636 83.8957 366.33 89.1711 369.739 94.6476C370.346 95.6302 370.953 96.6129 371.56 97.5956C372.548 99.8315 373.535 102.067 374.523 104.303C375.664 105.743 376.299 107.586 377.958 108.613C379.094 108.794 380.387 109.864 381.169 108.045C381.181 106.816 381.194 105.588 381.207 104.36C380.733 103.399 380.259 102.437 379.786 101.476C379.164 100.782 378.65 100.05 378.89 99.0402C373.663 88.6262 366.895 79.241 359.628 70.1885C358.583 69.7263 357.993 68.8813 357.646 67.8319C357.34 67.5199 357.035 67.2079 356.729 66.896C355.335 65.8342 354.055 64.6728 353.323 63.0282C352.043 62.3629 351.67 60.8356 350.504 60.0622C346.385 56.4918 342.7 52.4764 338.831 48.6507C338.392 48.1709 337.954 47.6912 337.515 47.2114C336.033 46.6462 335.022 45.5334 334.123 44.2909C332.852 43.1838 331.581 42.0767 330.31 40.9696C329.4 40.817 328.759 40.3117 328.362 39.4858C326.771 38.2171 325.18 36.9485 323.588 35.6798C322.666 35.5463 322.015 35.054 321.635 34.2032C319.885 32.9323 318.135 31.6614 316.386 30.3905C315.531 30.1696 314.777 29.8157 314.43 28.9189C307.725 24.5995 301.018 20.2904 293.89 16.6681C291.478 15.4425 288.825 14.7143 286.606 13.1042C285.68 13.0666 284.827 12.8542 284.205 12.0929C283.085 11.6282 281.964 11.1635 280.844 10.6988C279.947 10.5887 279.052 10.4747 278.435 9.69348C275.304 8.69227 272.128 7.81257 269.052 6.66269C263.836 4.7124 258.416 3.58806 253.007 2.40054C252.24 1.99126 251.216 2.29728 250.58 1.52643C249.788 1.49809 248.996 1.46975 248.204 1.44141C247.406 1.27903 246.608 1.11664 245.81 0.95425C245.487 0.95572 245.164 0.95719 244.842 0.95867C244.044 0.79567 243.246 0.63268 242.448 0.46968C242.125 0.47273 241.803 0.47579 241.48 0.47884C240.524 0.32565 239.568 0.17247 238.613 0.01929C237.818 0.01356 237.023 0.00783 236.228 0.00211C232.845 0.00141 229.462 0.0007 226.079 0C225.285 0.01471 224.492 0.02941 223.699 0.04412C222.989 0.67663 222.156 0.62054 221.306 0.47801C215.794 1.59043 210.354 2.96641 205.07 4.91576C204.501 5.44161 203.821 5.73252 203.063 5.85655L203.073 5.85146C202.44 6.20293 201.806 6.5544 201.172 6.90587C198.127 8.54471 195.33 10.5613 192.537 12.5844C191.729 13.2391 190.92 13.8937 190.112 14.5484C189.765 15.3649 188.952 15.579 188.276 15.9713C187.131 17.1095 185.986 18.2476 184.841 19.3858C184.527 19.8419 184.214 20.298 183.9 20.7542C183.088 21.7262 182.276 22.6983 181.464 23.6704C178.841 26.7764 176.931 30.3671 174.645 33.7022C174.037 34.6837 173.429 35.6651 172.822 36.6465C167.095 47.3709 161.369 58.0954 155.643 68.8198C155.285 69.4641 154.928 70.1084 154.57 70.7527C151.633 77.4393 147.613 83.4803 143.435 89.4269C142.823 90.2442 142.211 91.0616 141.599 91.8789C141.43 92.476 140.328 92.3747 140.557 93.2701C139.783 94.2466 139.01 95.2231 138.236 96.1997C138.09 96.3521 137.944 96.5046 137.798 96.657C137.151 97.324 136.503 97.9909 135.856 98.6579C135.482 99.3492 135.253 100.152 134.433 100.499C132.821 102.113 131.209 103.727 129.596 105.341C129.104 106.108 128.471 106.733 127.703 107.222C126.572 108.194 125.442 109.167 124.311 110.14C121.149 112.708 117.883 115.132 114.444 117.321C113.787 117.739 113.188 118.25 112.359 118.28C111.172 119.25 109.891 120.058 108.44 120.576C104.664 122.017 101.13 124.076 97.1632 125.028C95.3195 125.471 93.4677 125.879 91.6195 126.303C89.3887 126.628 87.1579 126.953 84.9272 127.277C81.1013 127.289 77.2755 127.3 73.4497 127.312C72.5849 127.44 71.7183 127.58 70.9674 126.942C70.826 126.893 70.6811 126.859 70.5328 126.839C69.6732 126.941 68.7955 127.158 68.0627 126.451C66.522 126.063 64.1608 126.991 64.2115 124.05C63.4695 123.145 63.7406 122.109 63.8276 121.096C63.8351 119.99 63.8426 118.883 63.8501 117.777C63.7736 117.641 63.742 117.496 63.7554 117.34C62.9236 116.636 63.4088 115.724 63.3712 114.895C62.5433 111.694 61.7364 108.487 60.8837 105.293C58.4694 96.2478 54.9156 87.642 50.8087 79.2513C50.1041 78.8505 49.9492 78.1467 49.8082 77.4353C49.8082 77.4353 49.8208 77.4576 49.8208 77.4576C49.2673 76.926 48.9717 76.263 48.8348 75.5194C48.8348 75.5194 48.8515 75.547 48.8515 75.5469C48.3272 74.991 47.8904 74.394 47.9253 73.5752C44.7109 67.5228 41.0179 61.7776 36.8599 56.331C36.0977 55.8876 35.4842 55.3402 35.4845 54.3637C35.309 54.1947 35.1335 54.0257 34.9579 53.8567C34.0487 53.5587 33.6984 52.8112 33.4504 51.9814C33.1459 51.6702 32.8415 51.3591 32.537 51.048C30.9918 49.8202 29.5529 48.4976 28.6491 46.6965C28.3429 46.3906 28.0367 46.0847 27.7305 45.7787C26.2512 45.2004 25.3548 43.9271 24.2717 42.8765C20.9799 39.8091 17.1434 37.5189 13.3257 35.2018C12.4106 35.1364 11.5454 34.9517 10.922 34.1917C9.32858 33.844 7.73514 33.4962 6.14172 33.1485L5.22379 33.1959C3.59094 33.1937 1.9581 33.1915 0.325226 33.1893C-0.645111 33.1554 -1.61682 33.1124 -2.50549 33.618C-4.34863 34.2463 -6.25687 34.7387 -7.73712 36.1246C-9.2699 37.1757 -10.4914 38.5377 -11.6088 40.0035C-14.4406 43.8473 -15.9195 48.2004 -16.4639 52.9053C-16.4714 55.1603 -16.4788 57.4153 -16.4863 59.6702C-15.7437 60.5279 -15.9326 61.5351 -16.0275 62.5273C-14.6709 69.4547 -12.3037 75.9612 -8.8237 82.1588C-5.98007 87.2231 -2.89191 92.0731 0.633331 96.6677C0.804413 96.8907 0.799927 97.2483 0.877197 97.5433C1.86386 98.1556 2.63342 98.9716 3.17923 99.9976C3.54019 100.441 3.90115 100.884 4.26212 101.328C6.37561 103.428 8.48907 105.528 10.6026 107.629C11.622 108.993 13.568 109.328 14.3277 110.981C15.3123 111.192 16.0083 111.878 16.7644 112.465C23.5896 117.693 31.1691 121.556 38.9864 125.062C42.0911 126.455 45.2656 127.685 48.4627 128.695C51.3771 129.616 54.2968 130.957 57.5027 130.785C59.5727 132.348 58.3853 134.248 58.0502 136.06C58.6214 136.862 58.6451 137.642 57.9562 138.393C58.1076 139.415 58.1478 140.422 57.5787 141.352C57.3353 142.812 58.0214 144.486 56.5847 145.672C56.7289 148.831 55.3267 151.597 54.2917 154.441C52.8188 158.487 50.9936 162.369 48.3428 165.808C47.5798 166.652 46.817 167.496 46.0541 168.341C45.4165 169.882 44.297 170.946 42.7967 171.633C42.0678 172.533 41.2346 173.317 40.2401 173.92C37.7776 175.915 35.2617 177.823 32.1932 178.824C31.5247 179.16 30.8561 179.496 30.1876 179.833C26.7878 181.346 23.3296 182.662 19.5777 182.993C18.9633 183.059 18.3489 183.126 17.7346 183.192C16.9588 183.762 16.096 183.67 15.2258 183.522C14.6181 183.569 14.0104 183.617 13.4027 183.664C10.1678 184.289 6.93512 184.4 3.70618 183.623C3.24396 183.594 2.78165 183.566 2.31943 183.537C1.46698 183.597 0.577179 183.884 -0.142944 183.134C-0.767059 183.094 -1.39105 183.055 -2.01517 183.015C-2.33792 183.017 -2.66064 183.019 -2.9834 183.021C-4.58167 182.697 -6.17999 182.373 -7.77826 182.049C-15.0481 180.346 -22.1816 178.234 -28.9387 174.992C-29.8747 174.938 -30.7155 174.641 -31.4272 174.015C-32.8038 173.627 -34.0439 172.969 -35.1827 172.111C-35.9811 172.068 -36.7611 171.988 -37.1319 171.111C-37.5786 170.933 -37.98 170.713 -38.0026 170.15C-37.9942 169.366 -37.9859 168.581 -37.9775 167.797C-37.9819 165.196 -37.9863 162.596 -37.9907 159.995C-37.9815 159.196 -37.9724 158.396 -37.9632 157.596C-37.9644 156.653 -37.9657 155.71 -37.9669 154.767C-40.4996 142.484 -45.5228 131.36 -53.4136 121.571C-54.3213 121.28 -54.6605 120.531 -54.9136 119.712C-55.5343 119.05 -56.1549 118.387 -56.7755 117.725C-57.5107 117.529 -57.994 117.08 -58.1754 116.329C-63.1573 111.69 -68.7148 108.085 -75.4994 106.686C-76.7857 106.685 -78.072 106.683 -79.3583 106.681C-85.0817 107.662 -87.9843 111.327 -88.9831 116.803C-88.991 118.41 -88.9988 120.018 -89.0067 121.626C-87.8707 128.476 -85.2806 134.711 -81.409 140.485C-79.7412 142.973 -77.7122 145.233 -76.4507 147.99C-75.6376 148.455 -75.0418 149.122 -74.6279 149.958C-74.4215 150.227 -74.215 150.497 -74.0086 150.767C-72.9343 151.938 -71.8601 153.11 -70.7859 154.281C-69.4701 155.699 -68.1542 157.117 -66.8384 158.536C-65.4985 159.02 -64.6039 160.09 -63.5927 161.007C-63.5096 161.134 -63.4717 161.273 -63.4789 161.424C-62.3327 161.669 -61.6547 162.531 -60.941 163.347C-56.1225 166.682 -51.6204 170.483 -46.3498 173.153C-45.2053 173.733 -44.9167 174.917 -45.294 176.036C-47.3581 182.161 -49.8859 188.065 -53.9418 193.19C-54.5599 194.008 -55.1779 194.826 -55.7961 195.644C-55.9431 195.795 -56.0901 195.945 -56.2372 196.096C-57.3699 197.229 -58.5026 198.362 -59.6353 199.495C-63.3224 203.035 -67.6597 205.373 -72.6374 206.525C-73.2541 206.59 -73.8709 206.656 -74.4876 206.722C-76.6082 207.427 -78.7292 207.384 -80.8505 206.725C-81.3051 206.663 -81.7598 206.601 -82.2145 206.539C-82.6018 206.661 -82.9843 206.761 -83.2409 206.306C-84.5858 206.186 -85.917 206.018 -87.0656 205.212C-90.214 205.034 -92.9568 203.552 -95.798 202.424C-96.8995 201.987 -98.2087 201.936 -99.0602 200.934C-100.011 200.907 -100.848 200.582 -101.57 199.964C-102.297 199.881 -102.899 199.559 -103.383 199.013C-104.336 198.994 -105.174 198.676 -105.889 198.041C-108.239 196.888 -110.818 196.222 -112.988 194.689C-113.915 194.652 -114.766 194.436 -115.388 193.678C-119.383 192.224 -123.378 190.771 -127.373 189.318C-128.337 189.312 -129.302 189.306 -130.266 189.3C-135.57 190.843 -137.38 194.926 -137.968 199.898C-137.978 202.8 -137.989 205.703 -138 208.605C-137.819 209.548 -137.148 210.411 -137.544 211.446C-136.269 220.038 -133.76 228.31 -130.917 236.481C-127.992 244.888 -125.211 253.34 -122.588 261.845C-122.497 262.138 -122.563 262.48 -122.556 262.798C-121.868 263.406 -121.697 264.487 -120.709 264.821C-119.607 264.779 -118.505 264.737 -117.403 264.695C-117.032 264.232 -116.66 263.769 -116.289 263.306L-116.437 263.365C-117.132 262.414 -116.702 261.352 -116.733 260.336C-116.739 259.894 -116.745 259.451 -116.751 259.009C-121.035 245.097 -126.369 231.523 -130.136 217.448C-130.736 215.208 -130.884 212.847 -131.241 210.541C-132.208 209.673 -131.517 208.589 -131.622 207.609C-131.692 207.474 -131.729 207.331 -131.73 207.179C-131.902 207.006 -132.075 206.832 -132.247 206.658C-132.9 205.047 -132.913 203.434 -132.26 201.819C-132.067 201.337 -132.354 200.678 -131.719 200.36C-131.697 199.147 -131.32 198.045 -130.672 197.029C-130.386 194.614 -128.578 195.889 -127.385 195.674C-124.224 196.666 -121.093 197.729 -118.248 199.482C-117.332 199.502 -116.553 199.893 -115.81 200.381C-115.182 200.726 -114.553 201.07 -113.925 201.415C-113.036 201.5 -112.219 201.783 -111.489 202.303C-109.088 203.394 -106.687 204.485 -104.287 205.576C-103.482 205.925 -102.678 206.274 -101.873 206.623C-96.6545 209.162 -91.0602 210.657 -85.5865 212.487L-83.2509 212.489C-82.3776 212.311 -81.5341 212.349 -80.7513 212.832C-80.601 212.829 -80.4575 212.859 -80.3209 212.922C-78.551 212.927 -76.7812 212.932 -75.0114 212.937C-74.2199 212.947 -73.4284 212.956 -72.637 212.965C-66.8821 211.861 -61.6003 209.758 -57.2527 205.681C-56.6025 204.509 -55.6335 203.708 -54.3954 203.219C-47.4219 196.267 -42.5603 188.014 -39.572 178.678C-39.0796 177.14 -38.2822 177.779 -37.6574 177.991C-36.4467 178.401 -35.3221 179.065 -34.1617 179.624L-31.7403 180.678C-26.1622 183.224 -20.3367 185.082 -14.4923 186.889C-13.381 187.099 -12.2697 187.31 -11.1584 187.521C-10.327 187.77 -9.71408 188.578 -8.74146 188.465C-7.75879 188.486 -6.71091 188.023 -5.83789 188.857C-4.80347 188.637 -3.92023 189.179 -2.97836 189.425L-0.134857 189.41L2.69162 189.435C3.70953 189.326 4.7359 189.134 5.68018 189.742C7.74524 189.739 9.81036 189.736 11.8754 189.733C12.814 189.17 13.8283 189.31 14.8388 189.414C15.63 189.409 16.4214 189.404 17.2126 189.399C18.0024 189.409 18.7923 189.418 19.5822 189.428C24.3076 188.825 28.8409 187.556 33.1487 185.507C33.4989 184.732 34.2417 184.657 34.9393 184.502C34.9393 184.502 34.9155 184.516 34.9156 184.516C35.4768 184.019 36.0532 183.556 36.8744 183.641C40.6059 182.106 43.5189 179.404 46.5422 176.859C47.7852 175.257 49.2244 173.851 50.8077 172.59C51.2652 172.083 51.7227 171.576 52.1801 171.069C52.3804 170.193 52.8356 169.511 53.668 169.117C55.8241 166.139 57.7245 163.017 59.0252 159.56C58.9786 158.747 59.3018 158.098 59.9062 157.573ZM-43.8451 160.061L-43.768 160.021C-43.0914 162.437 -42.9596 164.851 -43.7736 167.265C-44.3561 167.711 -44.8118 167.215 -45.1948 166.968C-56.839 159.467 -67.4363 150.822 -75.1446 139.1C-78.6752 133.731 -81.6646 128.098 -82.7446 121.648C-83.5393 120.024 -83.4247 118.399 -82.7487 116.773C-82.2682 114.929 -81.3415 113.469 -79.3995 112.884C-78.0849 112.144 -76.7798 112.259 -75.4808 112.928C-71.3168 113.756 -67.8236 115.992 -64.7824 118.729C-53.4538 128.923 -46.8859 141.811 -43.9442 156.655C-43.9111 157.79 -43.8781 158.926 -43.8451 160.061ZM-10.2479 52.3713C-10.0814 51.9419 -9.82892 51.5256 -9.76138 51.0812C-8.83542 44.9867 -5.72409 40.7288 0.357239 38.9392C1.65005 38.2536 2.94659 38.2446 4.24698 38.9174C7.28931 39.2824 10.0555 40.3618 12.6819 41.9419C24.0477 48.7802 31.8108 58.9834 38.6765 69.9545C44.1561 78.7106 48.4946 88.0848 52.0276 97.7697C54.6605 104.987 57.1368 112.319 57.5976 120.114C58.1738 121.048 58.0938 122.061 57.9515 123.081C57.9696 123.232 58.004 123.38 58.0548 123.524C58.4263 123.895 58.6161 124.343 58.2189 124.759C57.8073 125.19 57.3747 125.009 57.0308 124.584C50.8401 123.065 44.8878 120.911 39.0287 118.374C29.8565 114.403 21.5183 109.152 14.1573 102.468C6.01465 95.0736 -0.356781 86.2962 -4.99081 76.2679C-7.44937 70.9475 -9.43875 65.5117 -10.2142 59.6767C-11.0695 57.2455 -10.8704 54.8093 -10.2479 52.3713Z" fill="currentColor"/>
</svg>
